<?xml version="1.0" standalone="no"?>
<!DOCTYPE svg PUBLIC "-//W3C//DTD SVG 20010904//EN"
 "http://www.w3.org/TR/2001/REC-SVG-20010904/DTD/svg10.dtd">
<svg version="1.0" xmlns="http://www.w3.org/2000/svg"
 width="512.000000pt" height="512.000000pt" viewBox="0 0 512.000000 512.000000"
 preserveAspectRatio="xMidYMid meet">

<g transform="translate(0.000000,512.000000) scale(0.100000,-0.100000)"
fill="#000000" stroke="none">
<path d="M517 4254 c-32 -7 -68 -19 -80 -25 -55 -29 -122 -89 -157 -142 -74
-110 -71 -35 -68 -1557 3 -1264 4 -1358 21 -1407 37 -108 148 -217 256 -251
52 -16 181 -17 2066 -17 1664 0 2019 2 2063 14 116 29 233 143 270 260 16 52
17 154 17 1431 0 1548 6 1432 -77 1544 -23 32 -68 75 -100 96 -113 75 37 70
-2175 69 -1661 -1 -1987 -3 -2036 -15z m3899 -441 c62 -44 64 -58 64 -400 0
-344 -2 -356 -69 -400 -34 -23 -38 -23 -353 -23 -344 0 -347 0 -398 55 l-25
27 -3 332 -3 332 23 34 c46 69 55 71 413 68 313 -3 321 -3 351 -25z m-267
-1919 c90 -45 134 -140 110 -238 -16 -67 -85 -138 -151 -154 -67 -17 -3029
-17 -3096 0 -66 16 -135 87 -151 154 -24 98 20 193 110 238 l53 26 1536 0
1536 0 53 -26z"/>
</g>
</svg>
