<?xml version="1.0" standalone="no"?>
<!DOCTYPE svg PUBLIC "-//W3C//DTD SVG 20010904//EN"
 "http://www.w3.org/TR/2001/REC-SVG-20010904/DTD/svg10.dtd">
<svg version="1.0" xmlns="http://www.w3.org/2000/svg"
 width="512.000000pt" height="512.000000pt" viewBox="0 0 512.000000 512.000000"
 preserveAspectRatio="xMidYMid meet">

<g transform="translate(0.000000,512.000000) scale(0.100000,-0.100000)"
fill="#000000" stroke="none">
<path d="M71 4202 c-19 -10 -43 -34 -53 -53 -17 -32 -18 -102 -18 -1589 0
-1487 1 -1557 18 -1589 10 -19 34 -43 53 -53 32 -17 130 -18 2489 -18 2359 0
2457 1 2489 18 19 10 43 34 53 53 17 32 18 102 18 1589 0 1487 -1 1557 -18
1589 -10 19 -34 43 -53 53 -32 17 -130 18 -2489 18 -2359 0 -2457 -1 -2489
-18z m4229 -1127 c0 -8 7 -15 15 -15 8 0 15 -4 15 -10 0 -5 -7 -10 -15 -10
-10 0 -15 -11 -15 -35 0 -29 4 -35 21 -35 11 0 17 -4 14 -10 -25 -40 -73 52
-58 111 6 23 23 26 23 4z m200 -35 c13 -24 13 -77 0 -85 -6 -4 -10 12 -10 40
0 42 -2 46 -22 43 -19 -2 -24 -10 -26 -46 -4 -53 -22 -45 -22 9 0 36 -2 40
-22 37 -19 -2 -24 -11 -29 -48 l-6 -45 -1 55 -2 55 65 2 c54 1 67 -2 75 -17z
m-3279 -46 c125 -58 148 -225 46 -340 -68 -77 -193 -123 -334 -124 -41 0 -67
-5 -76 -15 -9 -8 -24 -53 -36 -101 -26 -114 -36 -124 -121 -124 -45 0 -71 5
-79 14 -14 17 133 671 158 699 14 17 31 18 206 15 168 -3 195 -6 236 -24z
m1929 -7 c95 -46 128 -131 95 -242 -38 -133 -180 -215 -374 -215 -39 0 -75 -5
-85 -13 -11 -8 -25 -46 -37 -102 -26 -118 -33 -125 -126 -125 -56 0 -75 4 -79
15 -9 24 144 676 164 698 16 18 29 19 202 15 178 -4 188 -5 240 -31z m995 11
c3 -7 -28 -163 -69 -347 -57 -259 -78 -337 -92 -348 -13 -9 -41 -13 -84 -11
-58 3 -65 5 -68 25 -4 25 132 643 148 672 9 18 20 21 86 21 50 0 76 -4 79 -12z
m-2434 -147 c120 -16 169 -55 169 -137 0 -55 -80 -386 -98 -406 -23 -27 -137
-26 -151 1 -6 10 -7 22 -3 26 9 10 -2 6 -70 -28 -67 -34 -164 -40 -215 -14
-89 46 -95 180 -13 258 48 46 132 74 260 90 108 13 110 13 110 39 0 52 -121
70 -243 37 -68 -18 -75 -12 -57 52 14 53 40 69 131 80 101 11 105 12 180 2z
m1992 -12 c53 -14 96 -56 104 -101 6 -42 -69 -388 -93 -426 -14 -21 -21 -23
-82 -20 -57 3 -68 6 -76 24 l-10 22 -57 -30 c-104 -55 -224 -39 -269 35 -36
59 -21 153 32 204 58 56 104 71 318 101 59 8 71 23 47 56 -27 37 -172 40 -262
6 -36 -14 -35 -14 -35 20 0 48 25 98 53 105 91 23 246 25 330 4z m-1605 -7
c14 -14 25 -59 42 -165 13 -81 28 -147 32 -147 9 0 29 33 127 199 39 68 72
113 88 120 30 14 160 15 168 1 3 -5 -2 -24 -11 -41 -43 -84 -427 -726 -445
-744 -15 -15 -36 -20 -94 -23 -99 -5 -102 3 -36 118 33 57 51 102 51 122 0 18
-20 150 -45 292 -33 192 -42 263 -34 273 18 21 135 17 157 -5z"/>
<path d="M944 2876 c-15 -10 -26 -39 -38 -96 -10 -44 -15 -87 -12 -95 6 -18
82 -20 137 -5 92 26 132 141 64 186 -35 23 -125 29 -151 10z"/>
<path d="M2861 2867 c-14 -17 -50 -168 -44 -184 7 -18 115 -17 156 1 39 17 72
52 81 87 8 38 -11 84 -40 98 -35 16 -139 14 -153 -2z"/>
<path d="M1605 2543 c-94 -13 -145 -44 -145 -88 0 -56 64 -80 135 -51 41 18
62 48 71 104 7 46 9 45 -61 35z"/>
<path d="M3512 2539 c-68 -12 -110 -34 -122 -65 -13 -32 6 -73 37 -80 35 -9
94 3 123 24 25 19 54 96 45 120 -5 13 -8 13 -83 1z"/>
</g>
</svg>
