<?xml version="1.0" standalone="no"?>
<!DOCTYPE svg PUBLIC "-//W3C//DTD SVG 20010904//EN"
 "http://www.w3.org/TR/2001/REC-SVG-20010904/DTD/svg10.dtd">
<svg version="1.0" xmlns="http://www.w3.org/2000/svg"
 width="512.000000pt" height="512.000000pt" viewBox="0 0 512.000000 512.000000"
 preserveAspectRatio="xMidYMid meet">

<g transform="translate(0.000000,512.000000) scale(0.100000,-0.100000)"
fill="#000000" stroke="none">
<path d="M3202 3340 c-322 -46 -541 -227 -559 -463 -14 -184 82 -305 350 -443
73 -36 147 -78 165 -91 93 -69 78 -169 -35 -220 -114 -52 -327 -38 -506 33
-49 20 -90 34 -92 32 -3 -3 -55 -311 -55 -327 0 -13 112 -48 215 -66 399 -69
759 32 898 252 50 79 69 158 65 263 -3 82 -8 102 -33 148 -50 92 -133 159
-305 247 -164 84 -240 143 -240 186 0 134 265 182 513 92 38 -13 71 -23 73
-20 8 8 58 316 52 322 -3 3 -49 17 -102 30 -110 28 -300 40 -404 25z"/>
<path d="M0 3317 c0 -8 22 -19 53 -26 151 -38 366 -137 497 -229 143 -101 287
-261 369 -412 22 -41 41 -70 41 -64 0 37 -134 644 -148 668 -9 16 -30 38 -45
50 -28 20 -40 21 -398 24 -304 2 -369 0 -369 -11z"/>
<path d="M1429 3293 c-35 -95 -383 -981 -389 -992 -8 -16 -7 -20 -35 84 -44
158 -221 390 -431 564 -51 42 -107 85 -125 95 l-32 19 6 -23 c3 -13 86 -297
184 -632 l178 -608 221 0 c168 0 223 3 227 13 3 6 148 343 322 747 174 404
319 741 322 748 4 9 -43 12 -216 12 l-221 0 -11 -27z"/>
<path d="M2046 3293 c-6 -28 -256 -1493 -256 -1500 0 -2 92 -3 205 -3 155 0
207 3 210 13 3 6 61 343 130 747 68 404 127 743 129 753 4 16 -11 17 -204 17
l-208 0 -6 -27z"/>
<path d="M4366 3308 c-82 -22 -86 -30 -423 -793 -172 -390 -313 -713 -313
-718 0 -4 97 -6 216 -5 l217 3 42 110 43 110 268 0 269 0 21 -97 c12 -54 24
-104 28 -113 4 -13 35 -15 196 -15 l192 0 -7 28 c-3 15 -79 358 -168 762
l-162 735 -190 2 c-105 0 -207 -3 -229 -9z m187 -686 c31 -147 57 -270 57
-274 0 -5 -76 -8 -169 -8 l-170 0 35 88 c19 48 67 171 106 275 40 103 75 187
78 187 3 0 31 -120 63 -268z"/>
</g>
</svg>
